#!OML:ASF G:\JayActor3\Patient Classification 1\Patient 1\Session 6\male.ASF
:FULLY-SPECIFIED
:DEGREES
4468
root -3.58317 14.8806 -14.7579 -373.7 -50.334 376.926
lowerback 26.8378 -4.31095 -1.94344
upperback 11.6278 -6.49067 1.91579
thorax -1.36347 -3.60687 4.92651
lowerneck 1.28664 -2.8955 4.26734
upperneck -3.18128 -3.80239 -1.07001
head -1.30975 -1.93809 -0.988214
rclavicle 3.97569e-014 -1.90833e-014
rhumerus -28.0382 25.436 -83.6049
rradius 127.771
rwrist 8.83408
rhand 3.74546 -18.2438
rfingers 7.12502
rthumb 29.1727 -45.9777
lclavicle 3.97569e-014 -1.90833e-014
lhumerus -26.2581 -30.5306 92.4814
lradius 122.262
lwrist 9.36062
lhand 1.1206 35.3448
lfingers 7.12502
lthumb 26.6633 63.4869
rfemur -38.5023 9.65838 8.60068
rtibia 70.0811
rfoot -29.5555 -9.03275
rtoes -8.75675
lfemur -19.858 10.5508 -8.02627
ltibia 16.7813
lfoot 6.95564 -9.9262
ltoes -1.38754
4469
root -3.56754 14.8955 -14.7622 -373.767 -50.3518 377.055
lowerback 26.8422 -4.39696 -1.75454
upperback 11.6084 -6.54932 2.08854
thorax -1.3792 -3.63463 5.02515
lowerneck 1.08354 -2.38049 4.59482
upperneck -2.97602 -3.13304 -1.61169
head -1.20981 -1.59801 -1.23094
rclavicle 1.11319e-014 -7.15625e-015
rhumerus -27.9941 24.9289 -83.2972
rradius 127.841
rwrist 8.81762
rhand 3.77839 -18.2576
rfingers 7.12502
rthumb 29.2041 -45.9861
lclavicle 1.11319e-014 -7.15625e-015
lhumerus -26.1622 -30.8141 92.6716
lradius 122.175
lwrist 9.37428
lhand 1.28247 35.4013
lfingers 7.12502
lthumb 26.8182 63.5198
rfemur -38.5006 9.71854 8.4706
rtibia 69.8768
rfoot -29.4511 -9.10919
rtoes -8.74118
lfemur -20.2467 11.4179 -8.32753
ltibia 17.8845
lfoot 5.83462 -9.58284
ltoes -3.03592
4470
root -3.55196 14.9117 -14.766 -373.827 -50.3751 377.185
lowerback 26.8258 -4.47171 -1.58838
upperback 11.6031 -6.59979 2.27534
thorax -1.3654 -3.66124 5.14674
lowerneck 0.904177 -1.86412 4.90547
upperneck -2.80898 -2.46066 -2.15033
head -1.1195 -1.25736 -1.46971
rclavicle -3.18055e-015 -7.15625e-014
rhumerus -27.9223 24.4265 -82.9718
rradius 127.916
rwrist 8.8232
rhand 3.81523 -18.2683
rfingers 7.12502
rthumb 29.2393 -45.9906
lclavicle -3.18055e-015 -7.15625e-014
lhumerus -26.07 -31.104 92.8809
lradius 122.081
lwrist 9.43806
lhand 1.15536 35.2633
lfingers 7.12502
lthumb 26.6965 63.4003
rfemur -38.4973 9.76127 8.33703
rtibia 69.6556
rfoot -29.3419 -9.16793
rtoes -8.73815
lfemur -20.6323 12.3333 -8.6403
ltibia 19.023
lfoot 4.59493 -9.04781
ltoes -4.84032
4471
root -3.53573 14.9296 -14.7686 -373.877 -50.3969 377.313
lowerback 26.7993 -4.54698 -1.42504
upperback 11.6041 -6.65224 2.46645
thorax -1.33848 -3.68978 5.27373
lowerneck 0.746964 -1.34771 5.21173
upperneck -2.66482 -1.78684 -2.69273
head -1.03391 -0.916659 -1.70915
rclavicle 6.52014e-014 -2.22639e-014
rhumerus -27.8404 23.9341 -82.6485
rradius 127.999
rwrist 8.85422
rhand 3.84761 -18.273
rfingers 7.12502
rthumb 29.2702 -45.99
lclavicle 6.52014e-014 -2.22639e-014
lhumerus -25.9963 -31.3791 93.09
lradius 121.99
lwrist 9.48079
lhand 0.979506 35.08
lfingers 7.12502
lthumb 26.5282 63.2426
rfemur -38.49 9.77215 8.19442
rtibia 69.4131
rfoot -29.225 -9.19859
rtoes -8.74258
lfemur -21.0024 13.2226 -8.94855
ltibia 20.1769
lfoot 3.29889 -8.26673
ltoes -6.58309
4472
root -3.51882 14.9494 -14.7698 -373.911 -50.4163 377.43
lowerback 26.7601 -4.62266 -1.25392
upperback 11.6124 -6.70422 2.66312
thorax -1.29727 -3.71874 5.40055
lowerneck 0.607914 -0.834854 5.51216
upperneck -2.54245 -1.11646 -3.23558
head -0.951948 -0.578259 -1.9481
rclavicle -3.57812e-014 4.77083e-015
rhumerus -27.7517 23.4467 -82.3224
rradius 128.095
rwrist 8.90891
rhand 3.87305 -18.2751
rfingers 7.12502
rthumb 29.2945 -45.9878
lclavicle -3.57812e-014 4.77083e-015
lhumerus -25.9345 -31.6457 93.2954
lradius 121.902
lwrist 9.50372
lhand 0.814493 34.9106
lfingers 7.12502
lthumb 26.3703 63.0969
rfemur -38.4759 9.75083 8.048
rtibia 69.1443
rfoot -29.0962 -9.20153
rtoes -8.75974
lfemur -21.3431 14.0536 -9.23194
ltibia 21.3219
lfoot 2.03397 -7.25444
ltoes -8.03519
4473
root -3.50122 14.9712 -14.7696 -373.916 -50.4408 377.523
lowerback 26.7154 -4.69659 -1.06369
upperback 11.6262 -6.7502 2.86839
thorax -1.24874 -3.74482 5.52365
lowerneck 0.479582 -0.328066 5.81024
upperneck -2.43522 -0.453255 -3.78674
head -0.870456 -0.243884 -2.18982
rclavicle 1.51076e-014 4.77083e-015
rhumerus -27.6541 22.9612 -81.9843
rradius 128.207
rwrist 8.98171
rhand 3.89125 -18.2697
rfingers 7.12502
rthumb 29.3119 -45.9794
lclavicle 1.51076e-014 4.77083e-015
lhumerus -25.8767 -31.9088 93.4915
lradius 121.815
lwrist 9.51801
lhand 0.701629 34.7993
lfingers 7.12502
lthumb 26.2622 63.0018
rfemur -38.4558 9.7099 7.9108
rtibia 68.847
rfoot -28.955 -9.17907
rtoes -8.77938
lfemur -21.6461 14.8115 -9.47214
ltibia 22.4416
lfoot 0.855625 -6.05401
ltoes -9.13363
4474
root -3.48312 14.9948 -14.7683 -373.893 -50.4627 377.587
lowerback 26.6749 -4.77093 -0.850798
upperback 11.6405 -6.79168 3.08191
thorax -1.20302 -3.76813 5.64243
lowerneck 0.361495 0.17198 6.10818
upperneck -2.3388 0.202037 -4.34587
head -0.787936 0.0861824 -2.43465
rclavicle 1.90833e-014 -5.24792e-014
rhumerus -27.5542 22.4752 -81.6356
rradius 128.343
rwrist 9.06833
rhand 3.91289 -18.2691
rfingers 7.12502
rthumb 29.3325 -45.9752
lclavicle 1.90833e-014 -5.24792e-014
lhumerus -25.8292 -32.1704 93.6788
lradius 121.733
lwrist 9.52643
lhand 0.663486 34.7527
lfingers 7.12502
lthumb 26.2257 62.9606
rfemur -38.4226 9.65193 7.7852
rtibia 68.52
rfoot -28.8041 -9.13689
rtoes -8.79147
lfemur -21.8995 15.4383 -9.65381
ltibia 23.5236
lfoot -0.206961 -4.69283
ltoes -9.66134
